<svg xmlns="http://www.w3.org/2000/svg" viewBox="0 0 700 400"><defs><linearGradient id="film.gradient" x1="0" y1="0" x2="0" y2="1"><stop offset="0" stop-color="#fff4d8"/><stop offset="1" stop-color="#d9a441"/></linearGradient></defs><g id="film.body" data-semantic="true"><rect x="55" y="105" width="285" height="190" rx="18" fill="#000" opacity="0.16" transform="translate(7 8)"/><rect x="55" y="105" width="285" height="190" rx="18" fill="url(#film.gradient)" stroke="#d9a441" stroke-width="4"/><path d="M75 165 C120 130 175 195 225 155 S300 180 325 150" fill="none" stroke="#d9a441" stroke-width="5" opacity="0.82"/><path d="M75 215 C125 175 175 245 235 205 S295 225 325 195" fill="none" stroke="#d9a441" stroke-width="5" opacity="0.9"/><path d="M75 262 C120 225 180 282 230 250 S290 270 325 238" fill="none" stroke="#d9a441" stroke-width="5" opacity="0.82"/></g><g id="trap.sites" data-semantic="true"><circle cx="165" cy="168" r="9" fill="#2474b5" stroke="#ffffff" stroke-width="2"/><circle cx="275" cy="206" r="9" fill="#2474b5" stroke="#ffffff" stroke-width="2"/><circle cx="125" cy="252" r="9" fill="#b53832" stroke="#ffffff" stroke-width="2"/><circle cx="265" cy="260" r="9" fill="#b53832" stroke="#ffffff" stroke-width="2"/></g><g id="energy.references" data-semantic="true"><path d="M405 68 V330" stroke="#59636d" stroke-width="3"/><path d="M415 95 H610 M415 145 H610 M415 320 H610" stroke="#59636d" stroke-width="3" fill="none"/><path d="M415 118 H610" stroke="#59636d" stroke-width="2" stroke-dasharray="8 7"/></g><g id="trap.shallow" data-semantic="true"><path d="M420 176 C455 135 485 135 520 176 C485 160 455 160 420 176Z" fill="#2474b5" opacity="0.34"/><path d="M465 184 H555 M475 205 H565" stroke="#2474b5" stroke-width="8"/><circle cx="505" cy="184" r="9" fill="#2474b5"/><circle cx="525" cy="205" r="9" fill="#2474b5"/></g><g id="trap.deep" data-semantic="true"><path d="M420 292 C458 225 505 225 550 292 C505 266 458 266 420 292Z" fill="#b53832" opacity="0.34"/><path d="M465 258 H565 M475 286 H575" stroke="#b53832" stroke-width="8"/><circle cx="510" cy="258" r="9" fill="#b53832"/><circle cx="535" cy="286" r="9" fill="#b53832"/></g><g id="escape.paths" data-semantic="true" fill="none"><path d="M565 258 C615 240 620 190 585 160" stroke="#b53832" stroke-width="4"/><path d="M575 286 C650 270 655 190 615 155" stroke="#b53832" stroke-width="4"/></g></svg>
