<svg xmlns="http://www.w3.org/2000/svg" viewBox="0 0 690 690">
  <defs>
    <linearGradient id="cantilever-fill" x1="0" y1="0" x2="1" y2="0">
      <stop offset="0" stop-color="#d6c38c"/>
      <stop offset="0.55" stop-color="#eee4c3"/>
      <stop offset="1" stop-color="#c9b16c"/>
    </linearGradient>
    <linearGradient id="electrode-fill" x1="0" y1="0" x2="1" y2="0">
      <stop offset="0" stop-color="#bdbdbd"/>
      <stop offset="0.55" stop-color="#eeeeee"/>
      <stop offset="1" stop-color="#a5a5a5"/>
    </linearGradient>
    <radialGradient id="charge-fill" cx="35%" cy="30%" r="68%">
      <stop offset="0" stop-color="#f7dce2"/>
      <stop offset="0.38" stop-color="#a65363"/>
      <stop offset="1" stop-color="#6b2330"/>
    </radialGradient>
  </defs>
  <rect width="690" height="690" fill="#ffffff"/>
  <g id="panel_f_labels" fill="#2b2b2b" font-family="Latin Modern Sans, sans-serif">
    <text x="31" y="66" font-size="40" font-weight="700">F</text>
    <text x="265" y="55" font-size="30" font-weight="700">mechanical</text>
  </g>
  <g id="panel_f_guides" stroke="#d5d5d5" stroke-width="1.2" stroke-dasharray="7 8">
    <line x1="244" y1="338" x2="557" y2="338"/>
    <line x1="244" y1="383" x2="557" y2="383"/>
    <line x1="244" y1="428" x2="557" y2="428"/>
    <line x1="244" y1="473" x2="557" y2="473"/>
    <line x1="244" y1="518" x2="557" y2="518"/>
    <line x1="244" y1="563" x2="557" y2="563"/>
  </g>
  <g id="f_fixed_support" stroke="#303030" fill="none" stroke-width="2">
    <line x1="285" y1="235" x2="420" y2="235"/>
    <path d="M294 235 l-11 -14 M311 235 l-11 -14 M328 235 l-11 -14 M345 235 l-11 -14 M362 235 l-11 -14 M379 235 l-11 -14 M396 235 l-11 -14"/>
    <line x1="352" y1="235" x2="352" y2="256"/>
    <rect x="312" y="256" width="84" height="18" fill="#eeeeee"/>
  </g>
  <g id="f_polymer_cantilever">
    <path d="M336 274 C347 347 318 435 241 511 C216 536 184 561 156 579 C149 584 150 590 157 598 L169 610 C174 615 181 616 188 612 C257 573 319 515 351 442 C378 381 388 312 378 279 C376 272 371 269 363 269 L347 269 C340 269 337 270 336 274 Z" fill="url(#cantilever-fill)" stroke="#846b18" stroke-width="4" data-subject="f_polymer_cantilever" data-predicate="manifests_macroscopically" data-object="c_deep_trap_population"/>
    <path d="M351 282 C360 354 330 442 250 520 C224 545 194 568 166 586" fill="none" stroke="#b3a375" stroke-width="1.8"/>
    <path d="M362 282 C372 354 345 443 270 527" fill="none" stroke="#c1b28a" stroke-width="1.3"/>
  </g>
  <g id="f_trapped_charge" fill="#ad5262" stroke="#ad5262">
    <path d="M302 350 C252 298 173 264 90 255" fill="none" stroke="#7d3b46" stroke-width="1.7" data-subject="f_trapped_charge" data-predicate="accumulates_on" data-object="f_polymer_cantilever"/>
    <text x="20" y="248" font-family="Latin Modern Sans, sans-serif" font-size="21" font-weight="700">trapped charge</text>
    <text x="22" y="279" font-family="Latin Modern Sans, sans-serif" font-size="27" font-style="italic">q<tspan font-size="16" baseline-shift="sub">tr</tspan></text>
    <g fill="none" stroke="#f0dce0" stroke-width="1.5">
      <circle cx="321" cy="358" r="25"/><circle cx="287" cy="421" r="25"/>
      <circle cx="238" cy="497" r="25"/><circle cx="190" cy="558" r="25"/>
    </g>
    <g fill="url(#charge-fill)" stroke="#a84456" stroke-width="1.5">
      <circle cx="321" cy="358" r="12"/><circle cx="287" cy="421" r="12"/>
      <circle cx="238" cy="497" r="12"/><circle cx="190" cy="558" r="12"/>
    </g>
  </g>
  <g id="f_coulomb_repulsion" fill="#b15263" stroke="#b15263">
    <text x="54" y="450" font-family="Latin Modern Sans, sans-serif" font-size="34" font-weight="700">Coulomb</text>
    <text x="45" y="500" font-family="Latin Modern Sans, sans-serif" font-size="34">repulsion</text>
    <line x1="229" y1="524" x2="31" y2="524" stroke-width="6" data-subject="f_coulomb_repulsion" data-predicate="acts_on" data-object="f_polymer_cantilever"/>
    <path d="M31 524 L69 507 L58 524 L69 541 Z"/>
  </g>
  <g id="f_planar_electrode" stroke="#303030">
    <rect x="558" y="278" width="39" height="355" fill="url(#electrode-fill)" stroke-width="4"/>
    <line x1="565" y1="286" x2="565" y2="625" stroke-width="1.5"/>
    <path d="M560 312 L595 302 M560 336 L595 326 M560 360 L595 350 M560 384 L595 374 M560 408 L595 398 M560 432 L595 422 M560 456 L595 446 M560 480 L595 470 M560 504 L595 494 M560 528 L595 518 M560 552 L595 542 M560 576 L595 566 M560 600 L595 590" fill="none" stroke-width="1.3"/>
    <text x="635" y="390" transform="rotate(90 635 390)" fill="#2b2b2b" stroke="none" font-family="Latin Modern Sans, sans-serif" font-size="31">electrode</text>
  </g>
  <g id="f_active_bias" stroke="#303030" fill="none">
    <rect x="466" y="76" width="136" height="52" rx="6" fill="#f7f7f7" stroke-width="1.4"/>
    <rect x="481" y="86" width="70" height="14" stroke-width="1.2"/>
    <path d="M487 94 H507 V89 H530 V94 H548" stroke-width="1.2"/>
    <path d="M506 100 L511 116 L526 99" stroke-width="2.4"/>
    <text x="520" y="120" fill="#2b2b2b" stroke="none" font-family="Latin Modern Sans, sans-serif" font-size="18">V<tspan font-size="12" baseline-shift="sub">active</tspan></text>
    <line x1="578" y1="128" x2="578" y2="278" stroke-width="2" data-subject="f_active_bias" data-predicate="energizes" data-object="f_planar_electrode"/>
    <circle cx="578" cy="128" r="3" fill="#9e4e5d" stroke="none"/>
  </g>
  <g id="f_air_gap" stroke="#2e2e2e" fill="#2e2e2e">
    <line x1="155" y1="640" x2="556" y2="640" stroke-width="2.7"/>
    <path d="M155 640 C163 633 165 627 161 620 M155 640 C163 647 165 653 161 660 M556 640 C548 633 546 627 550 620 M556 640 C548 647 546 653 550 660" fill="none" stroke-width="2.7"/>
    <text x="314" y="674" font-family="Latin Modern Sans, sans-serif" font-size="31">air gap</text>
  </g>
</svg>
