<svg xmlns="http://www.w3.org/2000/svg" viewBox="0 0 960 640" role="img" aria-labelledby="title desc">
  <title id="title">Panel F: trapped-charge-driven mechanical cantilever response</title>
  <desc id="desc">A charged poly(S-r-DIB) cantilever bends away from a biased planar electrode through Coulomb repulsion.</desc>
  <defs>
    <linearGradient id="cantilever-fill" x1="0" y1="0" x2="1" y2="0"><stop offset="0" stop-color="#edf3f6"/><stop offset="1" stop-color="#c6d5dd"/></linearGradient>
    <linearGradient id="electrode-fill" x1="0" y1="0" x2="0" y2="1"><stop offset="0" stop-color="#a7b2b9"/><stop offset="1" stop-color="#687680"/></linearGradient>
  </defs>
  <rect width="960" height="640" fill="#fff"/>
  <g fill="#17212b" font-family="Latin Modern Sans, sans-serif"><text x="34" y="56" font-size="38" font-weight="700">F</text><text x="92" y="54" font-size="25" font-weight="700">mechanical</text></g>
  <g id="f_fixed_support" data-semantic="true">
    <rect x="92" y="184" width="90" height="290" rx="8" fill="#44535e"/>
    <g stroke="#dce4e8" stroke-width="5"><path d="M102 216 L172 186"/><path d="M102 262 L172 232"/><path d="M102 308 L172 278"/><path d="M102 354 L172 324"/><path d="M102 400 L172 370"/><path d="M102 446 L172 416"/></g>
  </g>
  <g id="f_polymer_cantilever" data-semantic="true">
    <path d="M176 318 C332 318 472 300 608 252 C696 220 760 177 812 126 L846 162 C784 221 716 264 624 300 C483 354 334 370 176 370 Z" fill="url(#cantilever-fill)" stroke="#50636f" stroke-width="3"/>
    <path d="M208 336 C360 339 488 318 616 276 C708 246 770 205 823 151" fill="none" stroke="#fff" stroke-width="4" opacity="0.7"/>
    <text x="462" y="293" transform="rotate(-10 462 293)" fill="#263640" font-family="Latin Modern Sans, sans-serif" font-size="20">poly(S-r-DIB)</text>
  </g>
  <g id="f_trapped_charge" data-semantic="true" fill="#df3c42" stroke="#fff" stroke-width="2">
    <circle cx="352" cy="357" r="11"/><circle cx="442" cy="342" r="11"/><circle cx="532" cy="316" r="11"/><circle cx="620" cy="281" r="11"/><circle cx="700" cy="242" r="11"/><circle cx="770" cy="198" r="11"/>
    <g fill="#df3c42" stroke="none" font-family="Latin Modern Sans, sans-serif" font-size="15" font-weight="700"><text x="346" y="362">+</text><text x="436" y="347">+</text><text x="526" y="321">+</text><text x="614" y="286">+</text><text x="694" y="247">+</text><text x="764" y="203">+</text></g>
    <text x="742" y="168" fill="#df3c42" stroke="none" font-family="Latin Modern Sans, sans-serif" font-size="21" font-weight="700">q_tr</text>
  </g>
  <g id="f_planar_electrode" data-semantic="true">
    <rect x="236" y="492" width="610" height="42" rx="8" fill="url(#electrode-fill)" stroke="#45535d" stroke-width="2"/>
    <text x="541" y="565" text-anchor="middle" fill="#35434d" font-family="Latin Modern Sans, sans-serif" font-size="21">electrode</text>
  </g>
  <g id="f_active_bias" data-semantic="true" font-family="Latin Modern Sans, sans-serif">
    <path d="M236 513 H194 V564 H144" fill="none" stroke="#263640" stroke-width="3"/>
    <circle cx="124" cy="564" r="20" fill="#fff" stroke="#263640" stroke-width="3"/>
    <path d="M116 564 H132 M124 556 V572" stroke="#df3c42" stroke-width="3"/>
    <text x="91" y="610" fill="#263640" font-size="20">V_active</text>
  </g>
  <g id="f_coulomb_repulsion" data-semantic="true" stroke="#df3c42" fill="none">
    <g stroke-width="4"><path d="M370 478 V408 M360 420 L370 408 L380 420"/><path d="M506 478 V386 M496 398 L506 386 L516 398"/><path d="M642 478 V352 M632 364 L642 352 L652 364"/><path d="M770 478 V296 M760 308 L770 296 L780 308"/></g>
    <path d="M314 458 C416 424 556 406 720 362" stroke-width="2" stroke-dasharray="7 7" opacity="0.5"/>
    <g fill="#df3c42" stroke="none" font-family="Latin Modern Sans, sans-serif" font-weight="700"><text x="604" y="406" font-size="24">Coulomb</text><text x="604" y="434" font-size="24">repulsion</text></g>
  </g>
  <g id="f_air_gap" data-semantic="true" stroke="#596873" fill="none">
    <path d="M876 493 V303 M866 315 L876 303 L886 315 M866 481 L876 493 L886 481" stroke-width="2.5"/>
    <text x="903" y="407" transform="rotate(-90 903 407)" fill="#596873" stroke="none" font-family="Latin Modern Sans, sans-serif" font-size="20">air gap</text>
  </g>
  <path d="M780 140 C822 104 852 82 890 70 M875 70 H890 V85" fill="none" stroke="#50636f" stroke-width="3"/>
  <g id="relation-f-01" data-coverage="declared-not-spatially-verified" data-relation-subject="f_active_bias" data-relation-predicate="energizes" data-relation-object="f_planar_electrode"/>
  <g id="relation-f-02" data-coverage="declared-not-spatially-verified" data-relation-subject="f_trapped_charge" data-relation-predicate="accumulates_on" data-relation-object="f_polymer_cantilever"/>
  <g id="relation-f-03" data-coverage="declared-not-spatially-verified" data-relation-subject="f_coulomb_repulsion" data-relation-predicate="acts_on" data-relation-object="f_polymer_cantilever" data-qualification="drives the cantilever away from the electrode"/>
  <g id="relation-f-04" data-coverage="declared-not-spatially-verified" data-relation-subject="f_polymer_cantilever" data-relation-predicate="manifests_macroscopically" data-relation-object="c_deep_trap_population" data-qualification="mechanical evidence for the same trap landscape"/>
</svg>
