<svg xmlns="http://www.w3.org/2000/svg" viewBox="0 0 580 440"><g id="chain.backbones" data-semantic="true" fill="none" stroke="#2f8c85" stroke-width="5" stroke-linecap="round"><path d="M25 70 C85 32 125 104 185 70 S285 36 345 70 S455 104 555 70"/><path d="M25 145 C85 107 125 179 185 145 S285 111 345 145 S455 179 555 145"/><path d="M25 220 C85 182 125 254 185 220 S285 186 345 220 S455 254 555 220"/><path d="M25 295 C85 257 125 329 185 295 S285 261 345 295 S455 329 555 295"/><path d="M25 370 C85 332 125 404 185 370 S285 336 345 370 S455 404 555 370"/></g><g id="sulfur.regions" data-semantic="true" fill="#d6a23d" opacity="0.22"><ellipse cx="150" cy="120" rx="82" ry="55"/><ellipse cx="400" cy="205" rx="82" ry="55"/><ellipse cx="260" cy="325" rx="82" ry="55"/></g><g id="sulfur.sites" data-semantic="true" fill="#fff4d8" stroke="#d6a23d" stroke-width="4"><circle cx="125" cy="105" r="12"/><path d="M120 109 h10"/><circle cx="155" cy="125" r="12"/><path d="M150 129 h10"/><circle cx="185" cy="110" r="12"/><path d="M180 114 h10"/><circle cx="370" cy="190" r="12"/><path d="M365 194 h10"/><circle cx="405" cy="215" r="12"/><path d="M400 219 h10"/><circle cx="438" cy="195" r="12"/><path d="M433 199 h10"/><circle cx="230" cy="310" r="12"/><path d="M225 314 h10"/><circle cx="265" cy="335" r="12"/><path d="M260 339 h10"/><circle cx="300" cy="315" r="12"/><path d="M295 319 h10"/></g><g id="trap.levels" data-semantic="true" fill="none" stroke="#d6a23d" stroke-width="6"><path d="M137 123 h38"/><path d="M197 128 h38"/><path d="M382 208 h38"/><path d="M450 213 h38"/><path d="M242 328 h38"/><path d="M312 333 h38"/></g><g id="trapped.carriers" data-semantic="true" fill="#2474b5" stroke="#ffffff" stroke-width="2"><circle cx="156" cy="123" r="8"/><circle cx="216" cy="128" r="8"/><circle cx="401" cy="208" r="8"/><circle cx="469" cy="213" r="8"/><circle cx="261" cy="328" r="8"/><circle cx="331" cy="333" r="8"/></g></svg>
